<?xml version="1.0" encoding="iso-8859-1"?>
<!-- Generator: Adobe Illustrator 19.0.0, SVG Export Plug-In . SVG Version: 6.00 Build 0)  -->
<svg xmlns="http://www.w3.org/2000/svg" xmlns:xlink="http://www.w3.org/1999/xlink" version="1.1" id="Layer_1" x="0px" y="0px" viewBox="0 0 512 512" style="enable-background:new 0 0 512 512;" xml:space="preserve">
<path style="fill:#FFD54F;" d="M351.126,476.2l-0.109-0.038l0,0l-41.5-31.523l-44.6-2.863l0,0  C159.813,394.779,70.649,338.549,70.649,338.549l94.968-172.176l172.931-95.723c0,0,12.66,20.077,30.986,52.4l2.481,55.807  l48.904,41.509c44.446,91.041,89.123,204.581,83.012,283.566C460.327,507.305,406.192,495.199,351.126,476.2z"/>
<g>
	<circle style="fill:#EE534F;" cx="221.509" cy="307.658" r="55.352"/>
	<circle style="fill:#EE534F;" cx="363.622" cy="312.418" r="43.108"/>
	<circle style="fill:#EE534F;" cx="428.165" cy="423.987" r="35.657"/>
	<path style="fill:#EE534F;" d="M354.204,133.867c4.587-4.587,9.786-8.187,15.33-10.817c14.689,25.91,33.017,59.69,51.385,97.316   c-21.091,12.337-48.629,9.466-66.715-8.62C332.697,190.24,332.697,155.372,354.204,133.867z"/>
	<path style="fill:#EE534F;" d="M274.99,426.693c18.103-18.103,47.456-18.103,65.559,0c13.375,13.376,16.857,32.886,10.468,49.469   c-28.909-9.979-58.071-21.852-86.101-34.386C267.178,436.291,270.532,431.15,274.99,426.693z"/>
</g>
<path style="opacity:0.1;enable-background:new    ;" d="M273.492,394.003c29.588,19.366,60.583,38.187,91.636,54.808l0,0  l0.118,0.063c47.742,25.545,95.611,45.867,138.695,54.924c-0.004,0.044-0.006,0.09-0.009,0.135  c-43.603,3.374-97.738-8.733-152.805-27.732l-0.109-0.038l0,0c-28.909-9.979-58.071-21.852-86.101-34.386  C159.813,394.779,70.649,338.549,70.649,338.549l36.929-66.952C144.201,301.561,205.073,349.221,273.492,394.003z"/>
<path style="fill:#FEA001;" d="M10.994,290.415c29.849-54.122,71.305-108.302,121.211-158.209  C182.113,82.3,236.293,40.844,290.414,10.995c14.794-8.159,34.731-1.505,43.683,14.637l15.138,27.297  c8.258,14.892,3.99,32.391-9.622,39.973C292.605,119.089,243.936,156.463,200.2,200.2c-43.736,43.736-81.11,92.405-107.298,139.414  c-7.583,13.613-25.082,17.88-39.974,9.622l-27.297-15.138C9.489,325.147,2.835,305.209,10.994,290.415z"/>
<g style="opacity:0.1;">
	<path d="M47.816,293.794l31.871,17.674c9.141,5.069,19.121,6.091,27.819,3.615c-5.179,8.204-10.07,16.393-14.603,24.531   c-7.583,13.613-25.082,17.88-39.973,9.622l-27.298-15.138c-16.142-8.952-22.796-28.891-14.637-43.683   c4.984-9.037,10.319-18.072,15.936-27.092C28.411,275.434,35.892,287.182,47.816,293.794z"/>
</g>
<path d="M194.767,347.288c-3.446-2.328-8.13-1.422-10.459,2.025c-2.329,3.447-1.423,8.131,2.025,10.46  c24.441,16.513,58.556,13.397,79.624-7.671c38.636-38.634,10.251-107.353-44.467-107.353c-44.849,0-75.764,47.92-57.313,88.778  c1.713,3.792,6.174,5.478,9.966,3.766c3.792-1.712,5.477-6.174,3.765-9.966c-14.026-31.07,9.555-67.512,43.582-67.512  c25.793,0,47.82,21.725,47.82,47.819c0,12.773-4.975,24.782-14.006,33.814C239.14,357.61,213.681,360.067,194.767,347.288z"/>
<path d="M399.404,276.585c-9.565-9.565-22.282-14.832-35.808-14.832s-26.243,5.267-35.808,14.832  c-19.745,19.744-19.745,51.871,0,71.616c9.565,9.565,22.282,14.833,35.808,14.833C407.881,363.034,430.584,307.766,399.404,276.585z   M388.75,337.548c-13.717,13.718-36.606,13.703-50.31,0c-21.836-21.834-5.774-60.729,25.154-60.729  C394.665,276.818,410.655,315.643,388.75,337.548z"/>
<path d="M428.138,467.157c11.537,0,22.383-4.493,30.54-12.65c8.158-8.158,12.65-19.003,12.65-30.54s-4.493-22.383-12.65-30.54  c-8.158-8.158-19.003-12.65-30.54-12.65s-22.382,4.493-30.54,12.65c-16.84,16.84-16.84,44.24,0,61.081  C405.755,462.666,416.602,467.157,428.138,467.157z M408.251,404.081c5.312-5.312,12.374-8.237,19.886-8.237  c24.409,0,37.137,30.761,19.887,48.011c-10.835,10.835-28.951,10.822-39.774,0C397.285,432.888,397.285,415.046,408.251,404.081z"/>
<path d="M415.559,192.747c-10.467-20.581-21.39-40.917-32.572-61.118c-0.007-0.013-0.015-0.026-0.022-0.04  c-10.465-18.783-19.579-34.391-26.302-45.659c5.814-10.714,5.911-24.466-0.863-36.68l-15.138-27.298  C329.772,2.316,305.085-5.735,286.753,4.375c-54.577,30.099-109.869,72.452-159.897,122.481  c-20.418,20.417-39.668,41.801-57.213,63.555c-2.612,3.238-2.104,7.981,1.135,10.593c3.207,2.585,8,2.079,10.592-1.135  c17.21-21.339,36.098-42.32,56.139-62.36c49.041-49.041,103.165-90.517,156.52-119.942c11.196-6.175,26.518-0.82,33.458,11.694  c0,0,15.113,27.253,15.138,27.298c5.51,9.936,3.842,23.869-6.7,29.739c-19.707,10.974-38.662,23.288-56.921,36.524  c-2.012,1.458-3.19,3.872-3.108,6.356c0.194,5.827,7.242,9.254,11.951,5.843c4.666-3.384,57.554-38.556,58.273-37.343  c3.789,6.392,8.203,13.944,13.087,22.477c-3.726,2.403-7.191,5.197-10.354,8.361c-24.408,24.408-24.408,64.123,0,88.531  c17.802,17.802,45.39,23.192,68.588,13.423c14.11,29.265,28.107,60.651,40.348,92.328c1.469,3.802,5.949,5.776,9.742,4.312  c3.881-1.5,5.811-5.861,4.312-9.742c-16.839-43.578-36.946-86.578-56.151-124.36C415.648,192.922,415.604,192.835,415.559,192.747z   M393.112,220.314c-12.695,0-24.63-4.944-33.606-13.919c-18.534-18.534-18.534-48.691,0-67.225c2.199-2.199,4.589-4.164,7.146-5.88  c15.76,28.059,30.583,56.123,44.164,83.618C405.22,219.149,399.206,220.314,393.112,220.314z"/>
<path d="M85.921,356.657C153.51,396.997,357.823,512.014,488.898,512c5.314,0,10.532-0.19,15.591-0.582  c3.702-0.286,6.643-3.227,6.929-6.929c3.112-40.215-6.31-92.53-28.001-155.493c-1.354-3.934-5.639-6.024-9.576-4.668  c-3.934,1.355-6.023,5.642-4.668,9.576c19.836,57.577,29.108,105.593,27.606,142.88c-36.139,1.479-81.838-7.043-136.49-25.39  c4.056-17.875-1.24-36.852-14.438-50.05c-10.179-10.179-23.712-15.784-38.106-15.784c-14.395,0-27.928,5.606-38.106,15.784  c-3.2,3.201-5.95,6.741-8.228,10.575c-70.314-31.903-133.126-67.672-163.732-85.798c0.6-0.221,1.497-2.352,1.781-2.863  c23.634-42.455,53.33-81.511,86.255-117.165c24.122-26.118,50.152-50.99,78.213-72.865c3.172-2.531,3.738-7.393,1.19-10.586  c-2.529-3.171-7.409-3.724-10.586-1.19c-40.322,32.169-77.24,68.78-109.728,108.848c-21.64,26.689-41.687,55.439-58.515,85.643  c-5.91,10.606-19.743,12.222-29.729,6.684l-27.297-15.138c-12.514-6.94-17.869-22.262-11.694-33.458  c12.929-23.443,28.207-47.115,45.408-70.361c2.475-3.345,1.77-8.061-1.574-10.536c-3.346-2.475-8.061-1.77-10.536,1.574  c-17.598,23.781-33.24,48.021-46.49,72.047c-10.109,18.33-2.059,43.017,17.58,53.909l27.297,15.138  C60.491,362.033,74.482,362.862,85.921,356.657z M307.745,420.623c23.821,0,42.437,22.327,38.194,45.759  c-16.673-5.936-34.159-12.746-52.269-20.356c-0.041-0.018-0.082-0.035-0.124-0.052c-5.488-2.351-10.987-4.674-16.456-7.069  c-0.597-0.262-1.196-0.525-1.795-0.788c1.442-2.192,3.112-4.238,4.996-6.122C287.625,424.662,297.375,420.623,307.745,420.623z"/>
<g>
</g>
<g>
</g>
<g>
</g>
<g>
</g>
<g>
</g>
<g>
</g>
<g>
</g>
<g>
</g>
<g>
</g>
<g>
</g>
<g>
</g>
<g>
</g>
<g>
</g>
<g>
</g>
<g>
</g>
</svg>
